<!-- Lunaway brand, generated by tool/brand/build_sources.py from brand/lunaway-mark.svg. -->
<svg xmlns="http://www.w3.org/2000/svg" viewBox="0 0 1280 640">
  <title>Lunaway: Where to sleep tonight, anywhere, even offline</title>
  <defs>
    <linearGradient id="sky" x1="0" y1="0" x2="0" y2="1">
      <stop offset="0" stop-color="#020B1B"/>
      <stop offset="1" stop-color="#061F43"/>
    </linearGradient>
    <radialGradient id="halo">
      <stop offset="0" stop-color="#FDF1DB" stop-opacity="0.16"/>
      <stop offset="0.55" stop-color="#FDF1DB" stop-opacity="0.05"/>
      <stop offset="1" stop-color="#FDF1DB" stop-opacity="0"/>
    </radialGradient>
  </defs>
  <rect width="1280" height="640" fill="url(#sky)"/>
  <path fill="#FDF1DB" fill-opacity="0.9" d="M1077.5 99C1078.4 102.2 1080.6 110.4 1082.7 112.5C1084.8 114.6 1090.5 116.6 1093.4 117.8C1090.5 119 1084.8 120.9 1082.7 123C1080.6 125.1 1078.4 133.4 1077.5 136.5C1076.6 133.4 1074.4 125.1 1072.3 123C1070.2 120.9 1064.5 119 1061.6 117.8C1064.5 116.6 1070.2 114.6 1072.3 112.5C1074.4 110.4 1076.6 102.2 1077.5 99Z"/>
  <path fill="#FDF1DB" fill-opacity="0.7" d="M147.5 161.6C148.1 163.7 149.6 169.2 151 170.6C152.4 172 156.2 173.3 158.1 174.1C156.2 174.9 152.4 176.2 151 177.6C149.6 179 148.1 184.5 147.5 186.6C146.9 184.5 145.4 179 144 177.6C142.6 176.2 138.8 174.9 136.9 174.1C138.8 173.3 142.6 172 144 170.6C145.4 169.2 146.9 163.7 147.5 161.6Z"/>
  <circle fill="#FDF1DB" fill-opacity="0.8" cx="267.5" cy="89.6" r="3.2"/>
  <circle fill="#FDF1DB" fill-opacity="0.6" cx="927.5" cy="69.1" r="2.8"/>
  <circle fill="#FDF1DB" fill-opacity="0.7" cx="1168.8" cy="250.9" r="3"/>
  <circle fill="#FDF1DB" fill-opacity="0.5" cx="75" cy="335.4" r="2.5"/>
  <path fill="#FDF1DB" fill-opacity="0.75" d="M1197.5 157L1204.4 163.8L1197.5 170.7L1190.6 163.8Z"/>
  <path fill="#FDF1DB" fill-opacity="0.5" d="M402.5 43L408.1 48.6L402.5 54.3L396.9 48.6Z"/>
  <circle fill="#FDF1DB" fill-opacity="0.5" cx="700" cy="43.5" r="2.2"/>
  <circle fill="#FDF1DB" fill-opacity="0.5" cx="1225" cy="76.8" r="2.2"/>
  <path fill="#FDF1DB" fill-opacity="0.55" d="M750 83.4C750.4 84.9 751.4 88.7 752.4 89.7C753.4 90.7 756.1 91.6 757.4 92.2C756.1 92.7 753.4 93.6 752.4 94.6C751.4 95.6 750.4 99.4 750 100.9C749.6 99.4 748.6 95.6 747.6 94.6C746.6 93.6 743.9 92.7 742.6 92.2C743.9 91.6 746.6 90.7 747.6 89.7C748.6 88.7 749.6 84.9 750 83.4Z"/>
  <path fill="#409FA7" d="M0 530.2C91.4 530.2 126.2 480.3 217.6 480.3C357.4 480.3 410.6 543.5 550.4 543.5C743.9 543.5 817.7 460.3 1011.2 460.3C1124.1 460.3 1167.1 510.2 1280 510.2V640H0Z"/>
  <path fill="#15576D" d="M0 583.4C155.9 583.4 215.3 546.8 371.2 546.8C548.6 546.8 616.2 596.7 793.6 596.7C997.9 596.7 1075.7 556.8 1280 556.8V640H0Z"/>
  <path fill="#061F43" d="M0 623.4C252.7 623.4 348.9 606.7 601.6 606.7C886.5 606.7 995.1 630 1280 630V640H0Z"/>
  <circle fill="url(#halo)" cx="240.3" cy="256.3" r="237.5"/>
  <g transform="translate(137.5 143.8) scale(0.45290)">
    <mask id="scene-pin"><path fill="#fff" d="M227 552A640 640 0 0 1 30 339.8 227 227 0 1 1 424 339.8 640 640 0 0 1 227 552Z"/></mask>
    <g mask="url(#scene-pin)">
      <path fill="#061F43" d="M0 0H454V552H0Z"/>
      <g fill="#FDF1DB">
        <path d="M195.4 57.9A140 140 0 0 0 98.7 112.4C55.3 170.2 78.1 245.9 147.6 269.1 193.3 284.3 245.6 265.4 275.6 229.4 254.7 236.4 233.6 243.1 210.9 238.2A92.3 92.3 0 0 1 142.6 120.1C151.3 92.6 171.8 73 195.4 57.9Z"/>
        <path d="M290.9 89.8C292.6 95.6 296.6 110.8 300.5 114.7 304.3 118.5 314.8 122.1 320.2 124.3 314.8 126.5 304.3 130.1 300.5 133.9 296.6 137.8 292.6 153 290.9 158.8 289.2 153 285.2 137.8 281.3 133.9 277.5 130.1 267 126.5 261.6 124.3 267 122.1 277.5 118.5 281.3 114.7 285.2 110.8 289.2 95.6 290.9 89.8Z"/>
        <circle cx="264.9" cy="181.5" r="5.5"/>
        <path d="M370.7 174.3 383.8 187.4 370.7 200.5 357.6 187.4Z"/>
      </g>
      <path fill="#409FA7" d="M-2.4 301.6C35.1 286.6 67.3 278 107.6 286.8Q125.1 290.7 142.1 296.8C151.2 299.9 160.1 304.9 169.5 306.4L188 311.5 205 315 216.5 311.8A455 455 0 0 1 283.9 280.5C329.9 262.9 382.5 245.7 431.9 259.7 442.6 262.8 452.2 267.9 462.1 272.9L471 583H-17Z"/>
      <path fill="#15576D" d="M25 359.9C51.1 352.1 66.5 348.9 93.4 346.6 111.2 345.1 129.1 348.6 146.9 347.1A182 182 0 0 0 216.2 328.7L238 335 283 339 294.1 329.1C332.5 315.7 361.8 305.9 403.1 309.4 418.1 310.6 432.7 317.6 446.4 323.1L471 583H-17Z"/>
      <path fill="#061F43" d="M64.2 414C107 409.7 175.4 393.9 209.6 367.7A95 95 0 0 0 229.8 345L235 323 228.5 315.8C243.8 317.1 258 318.9 272.6 323.5 276.1 324.6 289.7 330.5 292.1 330.4 293.1 330.3 294.4 329.6 295.4 329.4L295.1 331.9Q310.3 338.8 323.5 349C326.5 351.4 336.5 362.2 338.4 363 340.1 363.8 343.5 362.8 345.4 362.6 351.8 362.1 358.5 362.8 364.9 363.4 382.5 364.8 398.8 370.8 415.1 377.3L471 583H-17Z"/>
      <path fill="#FDFDFD" d="M169.5 306.4Q185.3 307.4 200.9 309.6C206.2 310.3 211.2 311.7 216.5 311.8 236.8 318.3 256.4 324.2 274.9 334.7A107 107 0 0 1 297.9 351.9C335.6 389.6 309.8 438.7 284.5 474.9A452 452 0 0 1 249.1 519.9L224.7 547.2 143 603 94.2 458.4C131 436.2 171.4 418.3 205.4 391.7 218.2 381.7 235 366.8 229.4 348.6 223.7 329.9 185.7 315.6 169.5 306.4Z"/>
      <path fill="#061F43" d="M263.9 345.4C265.8 347.6 268.1 349.3 269.6 351.6 273.6 357.5 276.7 366.1 275.4 374.1 275.3 374.9 274.5 376 274.4 376.6Q268 376.5 261.9 375.1C262.8 367.7 262.6 363 261.4 355.6 261 353.5 256.4 346.8 256.4 346.1 256.4 345.8 257 345.7 256.9 345.4zM269.9 394.9C263.7 409.3 255.9 422 246.4 435.1Q235 432.1 224.1 428.1A403 403 0 0 0 253.9 392.1C259.3 392.5 264.6 393.7 269.9 394.9ZM207.9 445.4C211.4 446.8 229.2 452.7 230.6 453.6 231 453.9 231.3 455.1 231.4 455.1A1170 1170 0 0 1 188.1 504.6C180.4 499.4 173.4 493.1 165.9 487.1 166.2 486.8 165.7 486.3 165.9 485.9 166.4 484.4 175.9 476.4 177.6 474.6 187.5 464.7 197.7 455.3 207.9 445.4Z"/>
    </g>
  </g>
  <path fill="#FDF1DB" d="M445 190 439.8 191Q436.4 191.8 436.4 194.4V282.6Q436.4 286.9 441.8 286.9H455.1Q461 286.9 465.4 283.9Q469.7 280.8 474.2 271.5L480 259.1Q481.1 256.8 483.3 257.3Q485.7 257.9 484.9 260.7L478 290.5Q477 294.3 474.6 294.3Q472.9 294.3 470.8 293Q468.6 291.8 464.8 291.8H406.1Q403.2 291.8 403.2 289.6Q403.2 287.8 405.4 287.3L410.5 286.3Q413.9 285.5 413.9 283V194.4Q413.9 191.8 410.5 191L405.4 190Q403.2 189.5 403.2 187.7Q403.2 185.6 406.1 185.6H444.3Q447.1 185.6 447.1 187.7Q447.1 189.5 445 190ZM492.8 272.2V234.5Q492.8 232.1 490.9 231.9L486.5 231.8Q484.8 231.5 484.8 230Q484.8 228.7 487 227.8L504.6 222.3Q508.1 221 509.6 221Q512.7 221 512.7 224.1V269.6Q512.7 276.3 515.8 279.5Q518.9 282.7 524.2 282.7Q527.4 282.7 531 281.2Q534.6 279.7 538.2 276.5L538.4 276.4V234.5Q538.4 232.1 536.6 231.9L532.2 231.8Q530.5 231.5 530.5 230Q530.5 228.7 532.7 227.8L550.3 222.3Q553.8 221 555.3 221Q558.3 221 558.3 224.1V283.2Q558.3 286.5 560.7 287.1L564.1 287.7Q566 288.4 566 289.8Q566 291.8 563.4 291.8H545Q542.3 291.8 540.6 289.8Q538.8 287.9 538.8 284.8V280.4Q530.6 287.5 524.3 290.4Q517.9 293.4 512.3 293.4Q503.7 293.4 498.3 287.9Q492.8 282.4 492.8 272.2ZM601.8 223.9V234Q609.8 226.8 615.8 223.8Q621.7 220.7 627 220.7Q635.3 220.7 639.9 226.1Q644.5 231.5 645.6 241.3L650.5 282.9Q650.9 286.5 653.1 287.1L656.2 287.8Q658.1 288.4 658.1 289.8Q658.1 291.8 655.6 291.8H625.3Q622.6 291.8 622.6 289.7Q622.6 288.4 624.4 287.8L627.9 287.1Q630.7 286.3 630.3 282.9L625.9 243.9Q625.1 237.5 622.7 234.3Q620.4 231.2 615.7 231.2Q609.8 231.2 602.7 237.5L601.8 238.3V283.2Q601.8 286.4 604.1 287.1L607.5 287.8Q609.1 288.4 609.1 289.7Q609.1 291.8 606.6 291.8H576.7Q574.2 291.8 574.2 289.8Q574.2 288.4 576.1 287.8L579.6 287.1Q581.9 286.4 581.9 283.3V234.3Q581.9 232.1 580.1 231.8L575.7 231.7Q573.9 231.4 573.9 229.9Q573.9 228.6 576.1 227.7L593.7 222.1Q597.2 220.9 598.8 220.9Q601.8 220.9 601.8 223.9ZM663.4 276.4Q663.4 267.5 671.2 262Q678.9 256.6 693.9 256.6Q697.3 256.6 700 257Q702.7 257.4 704.9 258.2V235.4Q704.9 230 702.4 227.1Q699.9 224.2 695.3 224.2Q690.7 224.2 688.3 226.3Q685.9 228.4 685.9 231.3V237.8Q685.9 241.9 683 244.5Q680.1 247 675.3 247Q666.9 247 666.9 239.1Q666.9 234.8 670.5 230.5Q674.1 226.2 681.1 223.5Q688.1 220.7 698.4 220.7Q711.7 220.7 718.2 226.1Q724.7 231.6 724.7 241.2V280.5Q724.7 285.2 728 285.2Q730.8 285.2 731.9 282.2Q732.4 281.4 733.2 281.4Q734.3 281.4 734.3 283Q734.3 284.9 732.7 287.4Q731.1 289.9 727.9 291.7Q724.6 293.4 719.5 293.4Q713.5 293.4 710.1 291.1Q706.7 288.7 706.2 284.7Q702.2 289 696.5 291.2Q690.8 293.4 684.4 293.4Q675.1 293.4 669.2 288.7Q663.4 284 663.4 276.4ZM683.5 273.3Q683.5 279.4 686.5 282.6Q689.5 285.9 694.2 285.9Q700.2 285.9 704.9 281.8V261.6Q702.9 260.8 700.8 260.4Q698.6 260 696.1 260Q690.1 260 686.8 263.5Q683.5 267 683.5 273.3ZM775.7 292.1H768.3Q765.1 292.1 764 288.9L744.1 230.8Q743.4 228.7 742.6 227.9Q741.9 227.1 740.7 226.9L737.9 226.3Q736.2 225.7 736.2 224.3Q736.2 222.3 738.6 222.3H771.2Q773.7 222.3 773.7 224.3Q773.7 225.8 771.6 226.2L768.3 226.8Q765.9 227.3 765.4 228.7Q764.9 230.1 766.1 233.6L779.7 275.3L792.6 236.8L790.5 230.7Q789.8 228.7 789.1 227.9Q788.4 227.1 787.3 226.8L784.8 226.3Q783 225.7 783 224.3Q783 222.3 785.5 222.3H817.3Q819.7 222.3 819.7 224.3Q819.7 225.9 817.8 226.2L813.8 227Q811.7 227.4 811.3 228.7Q810.8 230.1 811.8 233.1L825.4 275.3L837.8 235.9Q839.3 231.5 838.6 229.4Q838 227.4 835.1 226.8L831.9 226.2Q829.9 225.8 829.9 224.3Q829.9 222.3 832.3 222.3H850.7Q853.2 222.3 853.2 224.3Q853.2 225.7 851.2 226.3L849.2 226.8Q847.4 227.4 846.1 229.3Q844.8 231.3 843.4 235.3L825.8 289.2Q825.3 290.9 824.1 291.5Q822.9 292.1 821.5 292.1H814.3Q811.1 292.1 809.9 288.9L795.1 244.4L780 289.3Q779.3 290.9 778.1 291.5Q777 292.1 775.7 292.1ZM857.7 276.4Q857.7 267.5 865.5 262Q873.2 256.6 888.2 256.6Q891.6 256.6 894.3 257Q896.9 257.4 899.2 258.2V235.4Q899.2 230 896.7 227.1Q894.2 224.2 889.6 224.2Q885 224.2 882.6 226.3Q880.2 228.4 880.2 231.3V237.8Q880.2 241.9 877.3 244.5Q874.4 247 869.6 247Q861.2 247 861.2 239.1Q861.2 234.8 864.8 230.5Q868.3 226.2 875.4 223.5Q882.4 220.7 892.7 220.7Q906 220.7 912.5 226.1Q919 231.6 919 241.2V280.5Q919 285.2 922.3 285.2Q925.1 285.2 926.2 282.2Q926.7 281.4 927.4 281.4Q928.6 281.4 928.6 283Q928.6 284.9 927 287.4Q925.4 289.9 922.1 291.7Q918.9 293.4 913.8 293.4Q907.8 293.4 904.4 291.1Q901 288.7 900.4 284.7Q896.5 289 890.8 291.2Q885 293.4 878.7 293.4Q869.3 293.4 863.5 288.7Q857.7 284 857.7 276.4ZM877.8 273.3Q877.8 279.4 880.8 282.6Q883.8 285.9 888.5 285.9Q894.5 285.9 899.2 281.8V261.6Q897.2 260.8 895 260.4Q892.9 260 890.4 260Q884.4 260 881.1 263.5Q877.8 267 877.8 273.3ZM965.7 305.7 968.6 298.3 940.6 234.3Q939 230.5 937.2 228.8Q935.3 227 932.4 226.3Q930.5 225.8 930.5 224.3Q930.5 222.3 933 222.3H967.1Q969.6 222.3 969.6 224.3Q969.6 225.8 967.6 226.3L963.6 226.9Q961 227.4 960.4 229.1Q959.9 230.8 961.4 234.3L978.2 274.9L993.4 235.9Q995.1 231.7 994.4 229.8Q993.7 227.9 990.5 227.1L986.9 226.4Q984.8 225.8 984.8 224.3Q984.8 222.3 987.3 222.3H1007.5Q1010 222.3 1010 224.3Q1010 225.6 1008 226.4Q1004.4 227.3 1002.4 229.1Q1000.4 230.9 998.7 235.1L971.1 305.2Q967.6 314 964.7 319Q961.8 324.1 958.4 326.2Q954.9 328.3 949.6 328.3Q942.1 328.3 937.7 324.2Q933.3 320.1 933.3 314.1Q933.3 309.7 935.5 307.2Q937.7 304.7 941.2 304.7Q944.4 304.7 946.3 306.8Q948.2 308.8 949.4 312.4L950.4 315.4Q951 317.9 952.2 319.5Q953.5 321.1 955.2 321.1Q957.6 321.1 959.9 317.6Q962.2 314.1 965.7 305.7Z"/>
  <path fill="#FDF1DB" fill-opacity="0.86" d="M436.4 352.6Q436.4 352.2 437 352.2H442.7Q443.3 352.2 443.3 352.6Q443.3 352.9 442.8 353.1L442 353.3Q441.5 353.5 441.1 354Q440.6 354.5 440.4 355.5L434.6 376.4Q434.5 376.7 434.4 376.9Q434.4 377.2 434.4 377.5V378.3Q434.4 378.8 433.9 378.8H430.4Q429.9 378.8 429.9 378.3V377.5Q429.9 377.2 429.9 377Q429.8 376.8 429.7 376.4L425.2 360.3L420.3 376.4Q420.2 376.6 420.2 376.9Q420.1 377.1 420.1 377.5V378.3Q420.1 378.8 419.6 378.8H416.2Q415.7 378.8 415.7 378.3V377.5Q415.7 377.2 415.7 377Q415.6 376.8 415.5 376.4L409.1 354.1Q408.9 353.5 408.3 353.3L407.3 353Q406.9 352.9 406.9 352.6Q406.9 352.2 407.4 352.2H415.4Q416 352.2 416 352.6Q416 352.9 415.5 353L413.9 353.3Q413.2 353.4 413.5 354.3L419.5 375.4L424.7 358.3L423.5 354.1Q423.4 353.7 423.2 353.5Q423.1 353.3 422.8 353.3L421.8 353Q421.4 352.9 421.4 352.6Q421.4 352.2 421.9 352.2H429.8Q430.3 352.2 430.3 352.6Q430.3 352.9 429.9 353L428.3 353.3Q427.9 353.4 427.9 353.6Q427.8 353.8 427.9 354.3L433.7 375.5L439.3 355.4Q439.5 354.5 439.2 354Q439 353.5 438 353.2L436.9 353Q436.4 352.9 436.4 352.6ZM450.3 351.4V364.4Q452.3 362.7 453.8 361.9Q455.2 361.2 456.5 361.2Q458.6 361.2 459.7 362.5Q460.8 363.9 461.2 366.4L462.4 376.8Q462.6 377.7 463.2 377.8L464.1 378Q464.5 378.1 464.5 378.4Q464.5 378.8 464 378.8H457.1Q456.6 378.8 456.6 378.4Q456.6 378.1 457 378L458 377.8Q458.8 377.6 458.7 376.8L457.5 366.8Q457.2 365 456.5 364.1Q455.8 363.2 454.4 363.2Q452.8 363.2 450.6 365.1L450.3 365.3V376.9Q450.3 377.6 451 377.8L452 378Q452.4 378.1 452.4 378.4Q452.4 378.8 451.8 378.8H445Q444.5 378.8 444.5 378.4Q444.5 378.1 445 378L446 377.8Q446.6 377.6 446.6 377V353.6Q446.6 353.1 446.2 353.1L444.8 353Q444.4 353 444.4 352.7Q444.4 352.4 444.9 352.2L448.7 351.1Q449.4 350.8 449.7 350.8Q450.3 350.8 450.3 351.4ZM481.5 368.2Q481.5 369.3 480.2 369.3H469.3Q469.4 373 471.1 374.9Q472.8 376.8 475.6 376.8Q477.5 376.8 478.8 375.9Q480.2 374.9 480.6 373.3Q480.9 372.9 481.1 372.9Q481.4 372.9 481.4 373.4Q481.3 375 480.3 376.3Q479.3 377.7 477.7 378.4Q476.1 379.2 474.1 379.2Q471.7 379.2 469.8 378.1Q467.9 377.1 466.9 375.1Q465.8 373.2 465.8 370.5Q465.8 367.8 466.9 365.7Q467.9 363.6 469.8 362.4Q471.7 361.2 474.3 361.2Q476.5 361.2 478.1 362.1Q479.7 363 480.6 364.6Q481.5 366.1 481.5 368.2ZM473.9 362.1Q471.9 362.1 470.6 363.8Q469.4 365.5 469.3 368.5H477.1Q477.7 368.5 477.7 367.9Q477.7 365.1 476.6 363.6Q475.6 362.1 473.9 362.1ZM489.6 362 489.7 365.9Q490.3 363.6 491.7 362.4Q493 361.2 494.5 361.2Q496.1 361.2 496.9 362.1Q497.7 363 497.7 364.5Q497.7 365.7 497.2 366.3Q496.7 366.9 495.9 366.9Q494.2 366.9 494.2 365.2V364.6Q494.1 363.3 492.9 363.3Q491.7 363.3 490.7 364.8Q489.7 366.3 489.7 369.3V376.9Q489.7 377.6 490.5 377.7L492.2 378Q492.8 378.1 492.8 378.4Q492.8 378.8 492.2 378.8H484.4Q483.9 378.8 483.9 378.4Q483.9 378.1 484.3 378L485.4 377.8Q486 377.7 486 377V364.1Q486 363.6 485.6 363.5L484.2 363.5Q483.8 363.5 483.8 363.2Q483.8 362.9 484.3 362.7L488 361.6Q488.5 361.4 488.7 361.4Q489 361.3 489.1 361.3Q489.5 361.3 489.6 362ZM515.1 368.2Q515.1 369.3 513.8 369.3H502.9Q503 373 504.7 374.9Q506.4 376.8 509.2 376.8Q511 376.8 512.4 375.9Q513.8 374.9 514.2 373.3Q514.5 372.9 514.7 372.9Q515 372.9 515 373.4Q514.9 375 513.9 376.3Q512.9 377.7 511.3 378.4Q509.7 379.2 507.7 379.2Q505.3 379.2 503.4 378.1Q501.5 377.1 500.5 375.1Q499.4 373.2 499.4 370.5Q499.4 367.8 500.5 365.7Q501.5 363.6 503.4 362.4Q505.3 361.2 507.9 361.2Q510.1 361.2 511.7 362.1Q513.3 363 514.2 364.6Q515.1 366.1 515.1 368.2ZM507.5 362.1Q505.4 362.1 504.2 363.8Q503 365.5 502.9 368.5H510.7Q511.3 368.5 511.3 367.9Q511.3 365.1 510.2 363.6Q509.2 362.1 507.5 362.1ZM526.2 362.7 524.9 362.4Q524.3 362.3 524.3 361.9Q524.3 361.6 524.8 361.6H526.2Q526.9 361.6 527.2 361.1L529.3 358Q529.6 357.4 530 357.4Q530.5 357.4 530.5 358V361.6H534.7Q535.3 361.6 535.3 361.9Q535.3 362.5 534.2 362.5H530.5V374.5Q530.5 375.9 531 376.6Q531.6 377.3 532.6 377.3Q533.3 377.3 533.7 377Q534.1 376.7 534.4 376.3Q534.7 375.9 535 375.6Q535.4 375.5 535.3 376Q535.1 377.3 534 378.2Q532.9 379.1 531.1 379.1Q529.1 379.1 528 378.1Q526.8 377.1 526.8 375V363.4Q526.8 362.8 526.2 362.7ZM546.4 361.2Q549 361.2 551 362.3Q553 363.5 554.2 365.5Q555.3 367.6 555.3 370.2Q555.3 372.9 554.1 374.9Q553 376.9 550.9 378.1Q548.9 379.2 546.2 379.2Q543.6 379.2 541.6 378.1Q539.6 376.9 538.5 374.9Q537.3 372.9 537.3 370.2Q537.3 367.6 538.5 365.5Q539.6 363.5 541.7 362.3Q543.7 361.2 546.4 361.2ZM547.5 378.2Q549.8 377.9 550.8 375.7Q551.9 373.5 551.3 369.6Q550.8 365.7 549.1 363.8Q547.5 361.9 545.1 362.2Q542.8 362.5 541.8 364.7Q540.8 367 541.3 370.8Q541.8 374.7 543.5 376.6Q545.2 378.5 547.5 378.2ZM572.6 378.3Q574.1 378.3 574.9 377.5Q575.7 376.8 575.7 375.6Q575.7 374.4 574.9 373.6Q574 372.7 571.6 372Q568 371.1 566.7 369.6Q565.3 368.2 565.3 366.2Q565.3 363.9 567 362.5Q568.6 361.1 571.5 361.1Q573.3 361.1 574.1 361.6Q575 362 575.4 362Q575.8 362 576.2 361.6Q576.6 361.1 577 361.1Q577.3 361.1 577.5 361.6L578.7 366.2Q579 366.9 578.6 367Q578.2 367.2 577.9 366.7Q576.5 364.1 575 363.1Q573.5 362 571.7 362Q569.9 362 569 362.8Q568.1 363.6 568.1 364.9Q568.1 366.1 569.1 367Q570 367.8 572.7 368.6Q575.9 369.4 577.2 370.8Q578.6 372.2 578.6 374.3Q578.6 376.5 577 377.8Q575.4 379.2 572.8 379.2Q571.7 379.2 571 378.9Q570.3 378.7 569.8 378.4Q569.3 378.1 569 378.1Q568.8 378.1 568.5 378.4Q568.2 378.6 568 378.9Q567.7 379.2 567.5 379.2Q567.1 379.2 567 378.7L566.2 374.5Q566 373.7 566.4 373.6Q566.7 373.4 567.1 374Q568.3 376.3 569.7 377.3Q571.2 378.3 572.6 378.3ZM587.4 351.4V376.9Q587.4 377.7 588 377.8L589 378Q589.4 378.1 589.4 378.4Q589.4 378.8 588.9 378.8H582.1Q581.5 378.8 581.5 378.4Q581.5 378.1 582 378L583 377.8Q583.6 377.6 583.6 377V353.6Q583.6 353.1 583.2 353.1L581.8 353Q581.4 353 581.4 352.7Q581.4 352.4 581.9 352.2L585.7 351.1Q586.4 350.8 586.7 350.8Q587.4 350.8 587.4 351.4ZM607.2 368.2Q607.2 369.3 605.9 369.3H595Q595.1 373 596.8 374.9Q598.6 376.8 601.3 376.8Q603.2 376.8 604.6 375.9Q606 374.9 606.4 373.3Q606.6 372.9 606.8 372.9Q607.2 372.9 607.2 373.4Q607 375 606 376.3Q605.1 377.7 603.5 378.4Q601.9 379.2 599.9 379.2Q597.4 379.2 595.5 378.1Q593.7 377.1 592.6 375.1Q591.6 373.2 591.6 370.5Q591.6 367.8 592.6 365.7Q593.7 363.6 595.6 362.4Q597.5 361.2 600.1 361.2Q602.3 361.2 603.9 362.1Q605.5 363 606.3 364.6Q607.2 366.1 607.2 368.2ZM599.6 362.1Q597.6 362.1 596.4 363.8Q595.1 365.5 595 368.5H602.8Q603.4 368.5 603.4 367.9Q603.4 365.1 602.4 363.6Q601.3 362.1 599.6 362.1ZM625.2 368.2Q625.2 369.3 623.9 369.3H613Q613.1 373 614.8 374.9Q616.6 376.8 619.3 376.8Q621.2 376.8 622.6 375.9Q624 374.9 624.4 373.3Q624.6 372.9 624.8 372.9Q625.2 372.9 625.1 373.4Q625 375 624 376.3Q623.1 377.7 621.5 378.4Q619.9 379.2 617.9 379.2Q615.4 379.2 613.5 378.1Q611.7 377.1 610.6 375.1Q609.6 373.2 609.6 370.5Q609.6 367.8 610.6 365.7Q611.7 363.6 613.6 362.4Q615.5 361.2 618.1 361.2Q620.3 361.2 621.9 362.1Q623.5 363 624.3 364.6Q625.2 366.1 625.2 368.2ZM617.6 362.1Q615.6 362.1 614.4 363.8Q613.1 365.5 613 368.5H620.8Q621.4 368.5 621.4 367.9Q621.4 365.1 620.4 363.6Q619.3 362.1 617.6 362.1ZM633.1 361.9V364Q634.3 362.6 635.8 361.9Q637.3 361.2 639 361.2Q641.1 361.2 642.8 362.3Q644.4 363.3 645.4 365.3Q646.3 367.2 646.3 369.8Q646.3 372.7 645.2 374.8Q644.1 376.9 642.2 378.1Q640.3 379.2 638 379.2Q635 379.2 633.2 377.3V385.8Q633.2 386.6 633.8 386.7L635.1 386.9Q635.6 387 635.6 387.3Q635.6 387.7 635.1 387.7H628Q627.4 387.7 627.4 387.3Q627.4 387 627.9 386.9L628.8 386.7Q629.5 386.5 629.5 385.8V364Q629.5 363.5 629 363.5L627.6 363.4Q627.3 363.4 627.3 363.1Q627.3 362.8 627.7 362.7L631.4 361.5Q632.1 361.2 632.5 361.2Q633.1 361.2 633.1 361.9ZM637.5 362.6Q635.2 362.6 633.2 365V375.9Q634.8 378 637.2 378Q639.5 378 641 376.2Q642.5 374.3 642.5 370.2Q642.5 366.4 641.1 364.5Q639.7 362.6 637.5 362.6ZM657.6 362.7 656.2 362.4Q655.7 362.3 655.7 361.9Q655.7 361.6 656.2 361.6H657.6Q658.3 361.6 658.6 361.1L660.6 358Q661 357.4 661.4 357.4Q661.9 357.4 661.9 358V361.6H666.1Q666.6 361.6 666.6 361.9Q666.6 362.5 665.5 362.5H661.9V374.5Q661.9 375.9 662.4 376.6Q663 377.3 663.9 377.3Q664.7 377.3 665.1 377Q665.5 376.7 665.8 376.3Q666.1 375.9 666.4 375.6Q666.7 375.5 666.7 376Q666.5 377.3 665.4 378.2Q664.3 379.1 662.5 379.1Q660.5 379.1 659.3 378.1Q658.2 377.1 658.2 375V363.4Q658.2 362.8 657.6 362.7ZM677.8 361.2Q680.4 361.2 682.4 362.3Q684.4 363.5 685.5 365.5Q686.7 367.6 686.7 370.2Q686.7 372.9 685.5 374.9Q684.4 376.9 682.3 378.1Q680.3 379.2 677.6 379.2Q675 379.2 673 378.1Q671 376.9 669.9 374.9Q668.7 372.9 668.7 370.2Q668.7 367.6 669.9 365.5Q671 363.5 673 362.3Q675.1 361.2 677.8 361.2ZM678.9 378.2Q681.1 377.9 682.2 375.7Q683.2 373.5 682.7 369.6Q682.2 365.7 680.5 363.8Q678.9 361.9 676.5 362.2Q674.2 362.5 673.2 364.7Q672.2 367 672.7 370.8Q673.2 374.7 674.9 376.6Q676.6 378.5 678.9 378.2ZM695 361.9V364.4Q697 362.7 698.4 361.9Q699.9 361.2 701.2 361.2Q703.2 361.2 704.4 362.5Q705.5 363.9 705.8 366.4L707.1 376.8Q707.2 377.7 707.9 377.8L708.8 378Q709.2 378.1 709.2 378.4Q709.2 378.8 708.6 378.8H701.8Q701.2 378.8 701.2 378.4Q701.2 378.1 701.6 378L702.7 377.8Q703.4 377.6 703.3 376.8L702.1 366.8Q701.9 365 701.2 364.1Q700.5 363.2 699.1 363.2Q697.5 363.2 695.3 365.1L695 365.3V376.9Q695 377.6 695.6 377.8L696.6 378Q697 378.1 697 378.4Q697 378.8 696.5 378.8H689.7Q689.2 378.8 689.2 378.4Q689.2 378.1 689.6 378L690.7 377.8Q691.3 377.6 691.3 377V364.1Q691.3 363.6 690.8 363.6L689.5 363.5Q689.1 363.5 689.1 363.2Q689.1 362.9 689.6 362.7L693.4 361.5Q694.1 361.3 694.4 361.3Q695 361.3 695 361.9ZM714.3 358Q713.2 358 712.5 357.3Q711.9 356.7 711.9 355.7Q711.9 354.7 712.5 354Q713.2 353.3 714.3 353.3Q715.4 353.3 716.1 354Q716.8 354.7 716.8 355.7Q716.8 356.7 716.1 357.3Q715.4 358 714.3 358ZM716.4 361.9V376.9Q716.4 377.7 717.1 377.8L718.1 378Q718.5 378.1 718.5 378.4Q718.5 378.8 718 378.8H711.1Q710.6 378.8 710.6 378.4Q710.6 378.1 711 378L712.1 377.8Q712.7 377.6 712.7 377V364.1Q712.7 363.6 712.3 363.6L710.9 363.5Q710.5 363.5 710.5 363.2Q710.5 362.9 711 362.7L714.8 361.5Q715.5 361.3 715.8 361.3Q716.4 361.3 716.4 361.9ZM731.7 378.1Q735.4 378.8 736.8 379.9Q738.2 381 738.2 382.8Q738.2 385.1 735.8 386.6Q733.4 388.1 729 388.1Q724.3 388.1 722.3 386.9Q720.2 385.6 720.2 383.8Q720.2 382.4 721.4 381.3Q722.6 380.2 725.4 379.6Q724.1 379.1 723.6 378.5Q723.1 377.9 723.1 377.2Q723.1 376.3 723.8 375.5Q724.4 374.8 726 374.3Q723.7 373.7 722.4 372Q721 370.3 721 368.2Q721 366.1 722 364.6Q723 363 724.8 362.1Q726.6 361.2 729.1 361.2Q731.1 361.2 732.7 361.9Q733.5 360.5 734.5 359.7Q735.5 358.9 736.7 358.9Q737.8 358.9 738.4 359.5Q739.1 360.1 739.1 361Q739.1 361.8 738.7 362.3Q738.3 362.7 737.6 362.7Q736.9 362.7 736.6 362.3Q736.2 361.8 735.9 361.4Q735.6 360.9 735 360.9Q734.1 360.9 733.3 362.2Q734.9 363 735.8 364.5Q736.8 366 736.8 367.7Q736.8 369.8 735.7 371.4Q734.7 372.9 732.9 373.8Q731.1 374.7 728.8 374.7Q727.8 374.7 726.9 374.5Q726.1 375 726.1 375.6Q726.1 376 726.5 376.4Q726.8 376.7 728 377.1Q729.2 377.5 731.7 378.1ZM728.3 362.1Q726.5 362.2 725.6 363.7Q724.6 365.2 724.8 367.8Q725 370.5 726.3 372.2Q727.5 373.8 729.4 373.7Q731.2 373.7 732.1 372.2Q733.1 370.7 732.9 368.1Q732.7 365.3 731.5 363.7Q730.2 362 728.3 362.1ZM723 383Q723 384.8 724.5 386Q726 387.2 729.5 387.2Q732.3 387.2 733.7 386.4Q735 385.5 735 384Q735 383.3 734.6 382.7Q734.1 382.1 732.9 381.7Q731.8 381.2 729.6 380.8Q727.5 380.3 726.2 379.9Q724.6 380.3 723.8 381.1Q723 381.9 723 383ZM746.1 351.4V364.4Q748.1 362.7 749.5 361.9Q751 361.2 752.3 361.2Q754.3 361.2 755.5 362.5Q756.6 363.9 756.9 366.4L758.2 376.8Q758.3 377.7 759 377.8L759.9 378Q760.3 378.1 760.3 378.4Q760.3 378.8 759.8 378.8H752.9Q752.3 378.8 752.3 378.4Q752.3 378.1 752.7 378L753.8 377.8Q754.6 377.6 754.5 376.8L753.2 366.8Q753 365 752.3 364.1Q751.6 363.2 750.2 363.2Q748.6 363.2 746.4 365.1L746.1 365.3V376.9Q746.1 377.6 746.7 377.8L747.7 378Q748.2 378.1 748.2 378.4Q748.2 378.8 747.6 378.8H740.8Q740.3 378.8 740.3 378.4Q740.3 378.1 740.7 378L741.8 377.8Q742.4 377.6 742.4 377V353.6Q742.4 353.1 742 353.1L740.6 353Q740.2 353 740.2 352.7Q740.2 352.4 740.7 352.2L744.5 351.1Q745.2 350.8 745.5 350.8Q746.1 350.8 746.1 351.4ZM762.9 362.7 761.5 362.4Q761 362.3 761 361.9Q761 361.6 761.5 361.6H762.9Q763.6 361.6 763.9 361.1L765.9 358Q766.3 357.4 766.7 357.4Q767.2 357.4 767.2 358V361.6H771.4Q771.9 361.6 771.9 361.9Q771.9 362.5 770.8 362.5H767.2V374.5Q767.2 375.9 767.7 376.6Q768.3 377.3 769.2 377.3Q770 377.3 770.4 377Q770.8 376.7 771.1 376.3Q771.4 375.9 771.7 375.6Q772 375.5 772 376Q771.8 377.3 770.7 378.2Q769.6 379.1 767.8 379.1Q765.8 379.1 764.6 378.1Q763.5 377.1 763.5 375V363.4Q763.5 362.8 762.9 362.7ZM777 378.8Q775.8 378.8 775.2 378.2Q774.6 377.5 774.6 376.5Q774.6 375.4 775.3 374.7Q776 374 777 374Q778.2 374 778.9 374.9Q779.7 375.8 779.7 377.8Q779.7 380.9 778.4 382.6Q777 384.3 775.1 384.9Q774.5 385 774.4 384.6Q774.4 384.3 775 384Q776.7 383.4 777.6 382.1Q778.4 380.9 778.4 379.5Q778.4 378.8 777.7 378.8ZM790 375Q790 372.9 791.9 371.5Q793.7 370.2 797.2 370.2Q798.2 370.2 799 370.3Q799.8 370.5 800.5 370.7V365.3Q800.5 361.9 797.5 361.9Q796.1 361.9 795.4 362.6Q794.6 363.2 794.6 364V365.4Q794.6 366.3 794.1 366.8Q793.5 367.2 792.6 367.2Q790.9 367.2 790.9 365.6Q790.9 364.5 791.8 363.5Q792.6 362.5 794.2 361.8Q795.8 361.2 798.1 361.2Q801.2 361.2 802.7 362.5Q804.2 363.8 804.2 366.1V376.3Q804.2 377.6 805.1 377.6Q805.5 377.6 805.7 377.4Q805.9 377.2 806 376.9Q806.2 376.7 806.3 376.7Q806.6 376.7 806.6 377Q806.6 377.7 805.8 378.4Q805.1 379.2 803.6 379.2Q800.8 379.2 800.7 377Q799.6 378.1 798.2 378.6Q796.8 379.2 795.2 379.2Q792.9 379.2 791.5 378Q790 376.9 790 375ZM793.9 374.4Q793.9 376 794.7 376.9Q795.6 377.7 796.9 377.7Q799 377.7 800.5 376.3V371.4Q799.8 371.2 799.1 371Q798.4 370.9 797.6 370.9Q795.8 370.9 794.9 371.8Q793.9 372.8 793.9 374.4ZM814.3 361.9V364.4Q816.3 362.7 817.7 361.9Q819.2 361.2 820.5 361.2Q822.6 361.2 823.7 362.5Q824.8 363.9 825.1 366.4L826.4 376.8Q826.5 377.7 827.2 377.8L828.1 378Q828.5 378.1 828.5 378.4Q828.5 378.8 828 378.8H821.1Q820.5 378.8 820.5 378.4Q820.5 378.1 820.9 378L822 377.8Q822.8 377.6 822.7 376.8L821.4 366.8Q821.2 365 820.5 364.1Q819.8 363.2 818.4 363.2Q816.8 363.2 814.6 365.1L814.3 365.3V376.9Q814.3 377.6 814.9 377.8L815.9 378Q816.4 378.1 816.4 378.4Q816.4 378.8 815.8 378.8H809Q808.5 378.8 808.5 378.4Q808.5 378.1 808.9 378L810 377.8Q810.6 377.6 810.6 377V364.1Q810.6 363.6 810.2 363.6L808.8 363.5Q808.4 363.5 808.4 363.2Q808.4 362.9 808.9 362.7L812.7 361.5Q813.4 361.3 813.7 361.3Q814.3 361.3 814.3 361.9ZM836.6 383.1 837.8 379.9 831.2 364.2Q830.8 363.3 830.3 362.9Q829.9 362.5 829.1 362.4Q828.6 362.3 828.6 362Q828.6 361.6 829.1 361.6H836.8Q837.3 361.6 837.3 362Q837.3 362.3 836.8 362.4L835.7 362.5Q835 362.7 834.9 363Q834.8 363.4 835.1 364.2L839.7 375.5L843.9 364.7Q844.3 363.7 844.1 363.2Q844 362.7 843.2 362.6L842.2 362.4Q841.7 362.3 841.7 362Q841.7 361.6 842.2 361.6H847.3Q847.8 361.6 847.8 362Q847.8 362.3 847.4 362.4Q846.5 362.6 846 363Q845.5 363.4 845.1 364.5L837.7 383.1Q836.9 385 836.3 386Q835.6 387.1 834.8 387.6Q834.1 388 832.9 388Q831.3 388 830.4 387.1Q829.4 386.2 829.4 384.9Q829.4 384 829.8 383.5Q830.3 383 831 383Q831.7 383 832.1 383.5Q832.4 383.9 832.6 384.7L832.8 385.3Q833 386.6 833.9 386.6Q834.6 386.6 835.2 385.8Q835.8 385.1 836.6 383.1ZM857 378.9H855.7Q855 378.9 854.8 378.2L849.9 363.5Q849.7 363 849.5 362.8Q849.2 362.6 848.9 362.5L848.1 362.4Q847.7 362.3 847.7 362Q847.7 361.6 848.2 361.6H855.6Q856.1 361.6 856.1 362Q856.1 362.3 855.6 362.4L854.7 362.5Q854 362.6 853.9 363Q853.8 363.3 854 364.2L857.8 375.7L861.4 364.6L861 363.5Q860.9 363 860.7 362.8Q860.5 362.6 860.2 362.5L859.4 362.4Q859 362.3 859 361.9Q859 361.6 859.5 361.6H866.6Q867.1 361.6 867.1 362Q867.1 362.3 866.7 362.4L865.6 362.6Q865.1 362.7 864.9 363Q864.8 363.3 865.1 364L868.8 375.7L872.3 364.7Q872.7 363.6 872.5 363.1Q872.4 362.7 871.6 362.5L870.7 362.4Q870.2 362.3 870.2 361.9Q870.2 361.6 870.7 361.6H875.5Q876 361.6 876 362Q876 362.3 875.5 362.4L874.9 362.5Q874.5 362.6 874.2 363.1Q873.8 363.6 873.5 364.5L869 378.3Q868.9 378.6 868.6 378.8Q868.4 378.9 868.1 378.9H866.8Q866.2 378.9 865.9 378.2L861.9 366.2L857.9 378.3Q857.7 378.9 857 378.9ZM883 351.4V364.4Q885 362.7 886.4 361.9Q887.9 361.2 889.2 361.2Q891.2 361.2 892.4 362.5Q893.5 363.9 893.8 366.4L895.1 376.8Q895.2 377.7 895.9 377.8L896.8 378Q897.2 378.1 897.2 378.4Q897.2 378.8 896.7 378.8H889.8Q889.2 378.8 889.2 378.4Q889.2 378.1 889.6 378L890.7 377.8Q891.4 377.6 891.4 376.8L890.1 366.8Q889.9 365 889.2 364.1Q888.5 363.2 887.1 363.2Q885.5 363.2 883.3 365.1L883 365.3V376.9Q883 377.6 883.6 377.8L884.6 378Q885 378.1 885 378.4Q885 378.8 884.5 378.8H877.7Q877.2 378.8 877.2 378.4Q877.2 378.1 877.6 378L878.7 377.8Q879.3 377.6 879.3 377V353.6Q879.3 353.1 878.9 353.1L877.5 353Q877.1 353 877.1 352.7Q877.1 352.4 877.6 352.2L881.4 351.1Q882.1 350.8 882.4 350.8Q883 350.8 883 351.4ZM914.1 368.2Q914.1 369.3 912.9 369.3H902Q902 373 903.8 374.9Q905.5 376.8 908.2 376.8Q910.1 376.8 911.5 375.9Q912.9 374.9 913.3 373.3Q913.5 372.9 913.8 372.9Q914.1 372.9 914.1 373.4Q913.9 375 913 376.3Q912 377.7 910.4 378.4Q908.8 379.2 906.8 379.2Q904.3 379.2 902.5 378.1Q900.6 377.1 899.5 375.1Q898.5 373.2 898.5 370.5Q898.5 367.8 899.5 365.7Q900.6 363.6 902.5 362.4Q904.4 361.2 907 361.2Q909.2 361.2 910.8 362.1Q912.4 363 913.3 364.6Q914.1 366.1 914.1 368.2ZM906.6 362.1Q904.5 362.1 903.3 363.8Q902.1 365.5 902 368.5H909.7Q910.4 368.5 910.4 367.9Q910.4 365.1 909.3 363.6Q908.2 362.1 906.6 362.1ZM922.3 362 922.3 365.9Q923 363.6 924.3 362.4Q925.7 361.2 927.2 361.2Q928.7 361.2 929.6 362.1Q930.4 363 930.4 364.5Q930.4 365.7 929.9 366.3Q929.4 366.9 928.5 366.9Q926.9 366.9 926.8 365.2V364.6Q926.8 363.3 925.6 363.3Q924.4 363.3 923.4 364.8Q922.4 366.3 922.4 369.3V376.9Q922.4 377.6 923.1 377.7L924.9 378Q925.4 378.1 925.4 378.4Q925.4 378.8 924.9 378.8H917.1Q916.5 378.8 916.5 378.4Q916.5 378.1 917 378L918 377.8Q918.7 377.7 918.7 377V364.1Q918.7 363.6 918.2 363.5L916.8 363.5Q916.5 363.5 916.5 363.2Q916.5 362.9 916.9 362.7L920.7 361.6Q921.2 361.4 921.4 361.4Q921.6 361.3 921.8 361.3Q922.2 361.3 922.3 362ZM947.7 368.2Q947.7 369.3 946.5 369.3H935.5Q935.6 373 937.4 374.9Q939.1 376.8 941.8 376.8Q943.7 376.8 945.1 375.9Q946.5 374.9 946.9 373.3Q947.1 372.9 947.4 372.9Q947.7 372.9 947.7 373.4Q947.5 375 946.6 376.3Q945.6 377.7 944 378.4Q942.4 379.2 940.4 379.2Q937.9 379.2 936.1 378.1Q934.2 377.1 933.1 375.1Q932.1 373.2 932.1 370.5Q932.1 367.8 933.1 365.7Q934.2 363.6 936.1 362.4Q938 361.2 940.6 361.2Q942.8 361.2 944.4 362.1Q946 363 946.9 364.6Q947.7 366.1 947.7 368.2ZM940.1 362.1Q938.1 362.1 936.9 363.8Q935.6 365.5 935.5 368.5H943.3Q944 368.5 944 367.9Q944 365.1 942.9 363.6Q941.8 362.1 940.1 362.1ZM953.1 378.8Q951.9 378.8 951.3 378.2Q950.7 377.5 950.7 376.5Q950.7 375.4 951.4 374.7Q952.1 374 953.1 374Q954.3 374 955.1 374.9Q955.8 375.8 955.8 377.8Q955.8 380.9 954.5 382.6Q953.1 384.3 951.2 384.9Q950.6 385 950.5 384.6Q950.5 384.3 951.1 384Q952.9 383.4 953.7 382.1Q954.5 380.9 954.5 379.5Q954.5 378.8 953.8 378.8ZM981.5 368.2Q981.5 369.3 980.2 369.3H969.3Q969.4 373 971.1 374.9Q972.8 376.8 975.6 376.8Q977.5 376.8 978.9 375.9Q980.3 374.9 980.7 373.3Q980.9 372.9 981.1 372.9Q981.5 372.9 981.4 373.4Q981.3 375 980.3 376.3Q979.4 377.7 977.8 378.4Q976.2 379.2 974.2 379.2Q971.7 379.2 969.8 378.1Q967.9 377.1 966.9 375.1Q965.9 373.2 965.9 370.5Q965.9 367.8 966.9 365.7Q967.9 363.6 969.9 362.4Q971.8 361.2 974.4 361.2Q976.5 361.2 978.1 362.1Q979.7 363 980.6 364.6Q981.5 366.1 981.5 368.2ZM973.9 362.1Q971.9 362.1 970.6 363.8Q969.4 365.5 969.3 368.5H977.1Q977.7 368.5 977.7 367.9Q977.7 365.1 976.7 363.6Q975.6 362.1 973.9 362.1ZM992.8 379H991.4Q990.8 379 990.5 378.3L984.9 363.7Q984.4 362.7 983.9 362.6L983.1 362.4Q982.6 362.3 982.6 362Q982.6 361.6 983.2 361.6H990.8Q991.3 361.6 991.3 361.9Q991.3 362.3 990.8 362.4L990 362.5Q989 362.7 988.8 363.1Q988.6 363.5 989 364.3L993.4 376.1L997.8 364.5Q998.1 363.5 997.9 363.1Q997.7 362.7 996.8 362.5L995.9 362.4Q995.4 362.3 995.4 361.9Q995.4 361.6 995.9 361.6H1001.1Q1001.6 361.6 1001.6 362Q1001.6 362.3 1001.1 362.4L1000.4 362.5Q1000 362.6 999.7 363Q999.4 363.4 999 364.3L993.6 378.3Q993.4 379 992.8 379ZM1018.3 368.2Q1018.3 369.3 1017 369.3H1006.1Q1006.2 373 1007.9 374.9Q1009.6 376.8 1012.4 376.8Q1014.3 376.8 1015.7 375.9Q1017 374.9 1017.5 373.3Q1017.7 372.9 1017.9 372.9Q1018.2 372.9 1018.2 373.4Q1018.1 375 1017.1 376.3Q1016.1 377.7 1014.5 378.4Q1013 379.2 1010.9 379.2Q1008.5 379.2 1006.6 378.1Q1004.7 377.1 1003.7 375.1Q1002.6 373.2 1002.6 370.5Q1002.6 367.8 1003.7 365.7Q1004.7 363.6 1006.6 362.4Q1008.5 361.2 1011.1 361.2Q1013.3 361.2 1014.9 362.1Q1016.5 363 1017.4 364.6Q1018.3 366.1 1018.3 368.2ZM1010.7 362.1Q1008.7 362.1 1007.4 363.8Q1006.2 365.5 1006.1 368.5H1013.9Q1014.5 368.5 1014.5 367.9Q1014.5 365.1 1013.4 363.6Q1012.4 362.1 1010.7 362.1ZM1026.5 361.9V364.4Q1028.5 362.7 1029.9 361.9Q1031.4 361.2 1032.7 361.2Q1034.7 361.2 1035.9 362.5Q1037 363.9 1037.3 366.4L1038.6 376.8Q1038.7 377.7 1039.4 377.8L1040.3 378Q1040.7 378.1 1040.7 378.4Q1040.7 378.8 1040.2 378.8H1033.3Q1032.7 378.8 1032.7 378.4Q1032.7 378.1 1033.1 378L1034.2 377.8Q1035 377.6 1034.9 376.8L1033.6 366.8Q1033.4 365 1032.7 364.1Q1032 363.2 1030.6 363.2Q1029 363.2 1026.8 365.1L1026.5 365.3V376.9Q1026.5 377.6 1027.1 377.8L1028.1 378Q1028.6 378.1 1028.6 378.4Q1028.6 378.8 1028 378.8H1021.2Q1020.7 378.8 1020.7 378.4Q1020.7 378.1 1021.1 378L1022.2 377.8Q1022.8 377.6 1022.8 377V364.1Q1022.8 363.6 1022.4 363.6L1021 363.5Q1020.6 363.5 1020.6 363.2Q1020.6 362.9 1021.1 362.7L1024.9 361.5Q1025.6 361.3 1025.9 361.3Q1026.5 361.3 1026.5 361.9ZM1058.6 361.2Q1061.2 361.2 1063.2 362.3Q1065.2 363.5 1066.4 365.5Q1067.5 367.6 1067.5 370.2Q1067.5 372.9 1066.4 374.9Q1065.2 376.9 1063.2 378.1Q1061.1 379.2 1058.5 379.2Q1055.9 379.2 1053.9 378.1Q1051.8 376.9 1050.7 374.9Q1049.6 372.9 1049.6 370.2Q1049.6 367.6 1050.7 365.5Q1051.9 363.5 1053.9 362.3Q1055.9 361.2 1058.6 361.2ZM1059.7 378.2Q1062 377.9 1063 375.7Q1064.1 373.5 1063.6 369.6Q1063 365.7 1061.4 363.8Q1059.7 361.9 1057.4 362.2Q1055.1 362.5 1054 364.7Q1053 367 1053.5 370.8Q1054.1 374.7 1055.8 376.6Q1057.4 378.5 1059.7 378.2ZM1076.4 376.9Q1076.4 377.7 1077.1 377.7L1079.2 378Q1079.7 378 1079.7 378.4Q1079.7 378.8 1079.2 378.8H1070.8Q1070.3 378.8 1070.3 378.4Q1070.3 378.1 1070.8 378L1072 377.8Q1072.7 377.6 1072.7 377V363.7Q1072.7 363.2 1072.1 363L1070.5 362.6Q1069.9 362.4 1069.9 362.1Q1069.9 361.8 1070.4 361.8H1072.8V361.7Q1072.8 360.9 1072.3 360.1Q1071.9 359.3 1071.4 358.4Q1071 357.4 1071 356.2Q1071 354 1072.4 352.7Q1073.8 351.4 1076.2 351.4Q1078.5 351.4 1079.7 352.5Q1080.9 353.5 1080.9 355Q1080.9 356 1080.4 356.5Q1079.9 357 1079.2 357Q1078.4 357 1077.9 356.5Q1077.4 356 1077.4 355.1V353.9Q1077.4 352.1 1075.7 352.1Q1074.5 352.1 1073.8 352.9Q1073.2 353.6 1073.2 354.9Q1073.2 356 1073.7 356.9Q1074.1 357.8 1074.7 358.6Q1075.3 359.4 1075.8 360.2Q1076.3 360.9 1076.3 361.7V361.8H1079.9Q1080.4 361.8 1080.4 362.1Q1080.4 362.7 1079.3 362.7H1076.4ZM1088.5 376.9Q1088.5 377.7 1089.2 377.7L1091.2 378Q1091.7 378 1091.7 378.4Q1091.7 378.8 1091.2 378.8H1082.9Q1082.4 378.8 1082.4 378.4Q1082.4 378.1 1082.9 378L1084.1 377.8Q1084.8 377.6 1084.8 377V363.7Q1084.8 363.2 1084.2 363L1082.6 362.6Q1081.9 362.4 1081.9 362.1Q1081.9 361.8 1082.4 361.8H1084.8V361.7Q1084.8 360.9 1084.4 360.1Q1083.9 359.3 1083.5 358.4Q1083 357.4 1083 356.2Q1083 354 1084.4 352.7Q1085.9 351.4 1088.3 351.4Q1090.5 351.4 1091.7 352.5Q1093 353.5 1093 355Q1093 356 1092.5 356.5Q1092 357 1091.2 357Q1090.5 357 1090 356.5Q1089.4 356 1089.4 355.1V353.9Q1089.4 352.1 1087.7 352.1Q1086.5 352.1 1085.9 352.9Q1085.2 353.6 1085.2 354.9Q1085.2 356 1085.7 356.9Q1086.2 357.8 1086.8 358.6Q1087.4 359.4 1087.8 360.2Q1088.3 360.9 1088.3 361.7V361.8H1091.9Q1092.4 361.8 1092.4 362.1Q1092.4 362.7 1091.3 362.7H1088.5ZM1100 351.4V376.9Q1100 377.7 1100.6 377.8L1101.6 378Q1102.1 378.1 1102.1 378.4Q1102.1 378.8 1101.6 378.8H1094.7Q1094.2 378.8 1094.2 378.4Q1094.2 378.1 1094.7 378L1095.7 377.8Q1096.3 377.6 1096.3 377V353.6Q1096.3 353.1 1095.9 353.1L1094.5 353Q1094.1 353 1094.1 352.7Q1094.1 352.4 1094.6 352.2L1098.4 351.1Q1099.1 350.8 1099.4 350.8Q1100 350.8 1100 351.4ZM1108 358Q1107 358 1106.3 357.3Q1105.6 356.7 1105.6 355.7Q1105.6 354.7 1106.3 354Q1107 353.3 1108 353.3Q1109.2 353.3 1109.8 354Q1110.5 354.7 1110.5 355.7Q1110.5 356.7 1109.8 357.3Q1109.2 358 1108 358ZM1110.2 361.9V376.9Q1110.2 377.7 1110.8 377.8L1111.8 378Q1112.3 378.1 1112.3 378.4Q1112.3 378.8 1111.7 378.8H1104.9Q1104.4 378.8 1104.4 378.4Q1104.4 378.1 1104.8 378L1105.8 377.8Q1106.5 377.6 1106.5 377V364.1Q1106.5 363.6 1106 363.6L1104.7 363.5Q1104.3 363.5 1104.3 363.2Q1104.3 362.9 1104.7 362.7L1108.5 361.5Q1109.2 361.3 1109.6 361.3Q1110.2 361.3 1110.2 361.9ZM1120.2 361.9V364.4Q1122.2 362.7 1123.6 361.9Q1125 361.2 1126.4 361.2Q1128.4 361.2 1129.5 362.5Q1130.7 363.9 1131 366.4L1132.3 376.8Q1132.4 377.7 1133 377.8L1133.9 378Q1134.4 378.1 1134.4 378.4Q1134.4 378.8 1133.8 378.8H1127Q1126.4 378.8 1126.4 378.4Q1126.4 378.1 1126.8 378L1127.9 377.8Q1128.6 377.6 1128.5 376.8L1127.3 366.8Q1127 365 1126.4 364.1Q1125.7 363.2 1124.3 363.2Q1122.6 363.2 1120.5 365.1L1120.2 365.3V376.9Q1120.2 377.6 1120.8 377.8L1121.8 378Q1122.2 378.1 1122.2 378.4Q1122.2 378.8 1121.7 378.8H1114.9Q1114.4 378.8 1114.4 378.4Q1114.4 378.1 1114.8 378L1115.8 377.8Q1116.5 377.6 1116.5 377V364.1Q1116.5 363.6 1116 363.6L1114.7 363.5Q1114.3 363.5 1114.3 363.2Q1114.3 362.9 1114.7 362.7L1118.5 361.5Q1119.3 361.3 1119.6 361.3Q1120.2 361.3 1120.2 361.9ZM1151.3 368.2Q1151.3 369.3 1150.1 369.3H1139.2Q1139.2 373 1141 374.9Q1142.7 376.8 1145.4 376.8Q1147.3 376.8 1148.7 375.9Q1150.1 374.9 1150.5 373.3Q1150.7 372.9 1151 372.9Q1151.3 372.9 1151.3 373.4Q1151.1 375 1150.2 376.3Q1149.2 377.7 1147.6 378.4Q1146 379.2 1144 379.2Q1141.5 379.2 1139.7 378.1Q1137.8 377.1 1136.7 375.1Q1135.7 373.2 1135.7 370.5Q1135.7 367.8 1136.7 365.7Q1137.8 363.6 1139.7 362.4Q1141.6 361.2 1144.2 361.2Q1146.4 361.2 1148 362.1Q1149.6 363 1150.5 364.6Q1151.3 366.1 1151.3 368.2ZM1143.7 362.1Q1141.7 362.1 1140.5 363.8Q1139.2 365.5 1139.2 368.5H1146.9Q1147.6 368.5 1147.6 367.9Q1147.6 365.1 1146.5 363.6Q1145.4 362.1 1143.7 362.1Z"/>
</svg>
